<?xml version="1.0" encoding="utf-8"?>
<!-- Generator: Adobe Illustrator 15.0.2, SVG Export Plug-In . SVG Version: 6.00 Build 0)  -->
<!DOCTYPE svg PUBLIC "-//W3C//DTD SVG 1.1//EN" "http://www.w3.org/Graphics/SVG/1.1/DTD/svg11.dtd">
<svg version="1.1" id="Layer_1" xmlns="http://www.w3.org/2000/svg" xmlns:xlink="http://www.w3.org/1999/xlink" x="0px" y="0px"
	 width="126.666px" height="126.669px" viewBox="0 0 126.666 126.669" enable-background="new 0 0 126.666 126.669"
	 xml:space="preserve">
<g>
	<g>
		<g>
			<g>
				<g>
					<circle fill="#2C3E50" cx="63.333" cy="63.334" r="63.333"/>
				</g>
			</g>
		</g>
	</g>
	<g>
		<g>
			<g>
				<path fill="#E74D3C" d="M68.912,102.115c0,2.621-2.127,4.748-4.748,4.748H28.955c-2.623,0-4.748-2.127-4.748-4.748l16.93-32.738
					c0-2.621,2.123-4.747,4.748-4.747h1.35c2.623,0,4.748,2.125,4.748,4.747L68.912,102.115z"/>
			</g>
			<g>
				<path fill="#DB3F3E" d="M66.546,101.16c0,2.467-1.9,4.471-4.244,4.471H30.814c-2.342,0-4.242-2.004-4.242-4.471l4.877-9.934
					c0,0-0.273-2.426,9.955-0.889C51.629,91.876,60.4,88.642,60.4,88.642L66.546,101.16z"/>
			</g>
			<g>
				<path fill="#E74D3C" d="M50.98,69.492c0,1.344-0.656,2.434-1.467,2.434h-6.057c-0.812,0-1.469-1.09-1.469-2.434v-22.71
					c0-1.345,0.656-2.435,1.469-2.435h6.057c0.811,0,1.467,1.09,1.467,2.435V69.492z"/>
			</g>
			<g>
				<path fill="#E74D3C" d="M46.488,39.763c-5.117,0-7.145,0.601-7.145,2.646c0,0.059,0.016,0.117,0.021,0.176
					c0.23,1.962,2.156,5.645,7.123,5.645c4.963,0,6.887-3.683,7.117-5.645c0.008-0.059,0.021-0.117,0.021-0.176
					C53.627,40.363,51.602,39.763,46.488,39.763z"/>
				<g>
					<path fill="#DC3A3A" d="M46.488,43.289c3.834,0,5.355-0.45,5.355-1.983c0-0.464-1.436-1.057-5.096-1.057
						c-3.658,0-5.621,0.33-5.621,1.057C41.127,42.839,42.65,43.289,46.488,43.289z"/>
				</g>
			</g>
			<g>
				<g>
					<circle fill="#CBE9E6" cx="46.903" cy="31.389" r="5.532"/>
				</g>
				<g>
					<path fill="#DFF1EF" d="M42.562,32.069c-0.881-1.034,0.381-3.602,1.414-4.48c1.035-0.883,3.426-1.606,4.303-0.571
						C49.164,28.05,43.441,33.104,42.562,32.069z"/>
				</g>
			</g>
			<g>
				<g>
					<circle fill="#CBE9E6" cx="42.959" cy="19.216" r="3.951"/>
				</g>
				<g>
					<path fill="#DFF1EF" d="M39.857,19.704c-0.631-0.739,0.271-2.575,1.01-3.201c0.738-0.63,2.449-1.147,3.076-0.406
						C44.574,16.832,40.486,20.442,39.857,19.704z"/>
				</g>
			</g>
			<g>
				<g>
					<circle fill="#CBE9E6" cx="54.597" cy="22.128" r="4.269"/>
				</g>
				<g>
					<path fill="#DFF1EF" d="M51.248,22.653c-0.682-0.798,0.293-2.778,1.092-3.458c0.799-0.679,2.645-1.236,3.32-0.439
						C56.34,19.553,51.928,23.451,51.248,22.653z"/>
				</g>
			</g>
			<g>
				<path fill="#E74D3C" d="M52.158,67.671c0,1.607-0.496,2.91-1.115,2.91h-9.139c-0.617,0-1.117-1.303-1.117-2.91l0,0
					c0-1.605,0.5-2.908,1.117-2.908h9.139C51.662,64.763,52.158,66.066,52.158,67.671L52.158,67.671z"/>
			</g>
			<g>
				<g>
					<g>
						<path fill="#FFFFFF" d="M43.299,50.081c-0.307,0-0.561-0.222-0.576-0.505c-0.014-0.293,0.232-0.54,0.549-0.552
							c0.424-0.021,4.141-0.179,4.432-0.179c0.318,0,0.576,0.236,0.576,0.529c0,0.292-0.258,0.529-0.576,0.529
							c-0.199,0-2.729,0.104-4.377,0.174C43.316,50.081,43.309,50.081,43.299,50.081z"/>
					</g>
				</g>
				<g>
					<g>
						<path fill="#FFFFFF" d="M43.299,53.255c-0.307,0-0.561-0.221-0.576-0.503c-0.014-0.294,0.232-0.541,0.549-0.554
							c0.424-0.02,4.141-0.179,4.432-0.179c0.318,0,0.576,0.236,0.576,0.529c0,0.294-0.258,0.529-0.576,0.529
							c-0.199,0-2.729,0.104-4.377,0.175C43.316,53.255,43.309,53.255,43.299,53.255z"/>
					</g>
				</g>
				<g>
					<g>
						<path fill="#FFFFFF" d="M43.299,56.43c-0.307,0-0.561-0.222-0.576-0.506c-0.014-0.291,0.232-0.538,0.549-0.552
							c0.424-0.018,4.141-0.178,4.432-0.178c0.318,0,0.576,0.236,0.576,0.529s-0.258,0.529-0.576,0.529
							c-0.199,0-2.729,0.105-4.377,0.177C43.316,56.43,43.309,56.43,43.299,56.43z"/>
					</g>
				</g>
				<g>
					<g>
						<path fill="#FFFFFF" d="M43.299,59.603c-0.307,0-0.561-0.22-0.576-0.504c-0.014-0.291,0.232-0.539,0.549-0.553
							c0.424-0.019,4.141-0.177,4.432-0.177c0.318,0,0.576,0.236,0.576,0.528s-0.258,0.529-0.576,0.529
							c-0.199,0-2.729,0.105-4.377,0.176C43.316,59.603,43.309,59.603,43.299,59.603z"/>
					</g>
				</g>
				<g>
					<g>
						<path fill="#FFFFFF" d="M43.299,62.777c-0.307,0-0.561-0.223-0.576-0.504c-0.014-0.293,0.232-0.539,0.549-0.553
							c0.424-0.02,4.141-0.178,4.432-0.178c0.318,0,0.576,0.236,0.576,0.527c0,0.293-0.258,0.531-0.576,0.531
							c-0.199,0-2.729,0.105-4.377,0.174C43.316,62.777,43.309,62.777,43.299,62.777z"/>
					</g>
				</g>
			</g>
		</g>
		<g>
			<g>
				<g>
					<path fill="#039A88" d="M101.904,58.257c5.008-5.872,6.654-11.06,4.496-14.324c-2.021-3.059-7.162-3.682-13.9-1.786
						l-0.008-0.02l-0.018,0.006c-2.154-6.759-5.459-10.612-9.156-10.612c-3.963,0-7.408,4.323-9.539,11.893
						c-2.322-0.491-4.48-0.754-6.406-0.754c-4.335,0-7.291,1.266-8.55,3.663c-1.818,3.461,0.334,8.453,5.892,13.789l-0.012,0.014
						l0.014,0.013c-4.996,5.868-6.636,11.049-4.482,14.311c1.25,1.891,3.654,2.889,6.953,2.889c0.002,0,0.002,0,0.002,0
						c2.041,0,4.389-0.391,6.961-1.119c2.156,6.775,5.465,10.643,9.168,10.643c3.961,0,7.406-4.324,9.539-11.895
						c2.322,0.492,4.479,0.756,6.404,0.756l0,0c4.334,0,7.291-1.266,8.551-3.662C109.632,68.597,107.474,63.598,101.904,58.257z
						 M91.259,72.337c-1.566-0.412-3.172-0.914-4.811-1.521c1.094-0.639,2.176-1.297,3.234-1.994
						c0.85-0.564,1.686-1.148,2.506-1.744C91.962,68.912,91.646,70.666,91.259,72.337z M75.648,73.453
						c-0.484-1.875-0.873-3.877-1.15-6.002c1.131,0.682,2.279,1.344,3.449,1.959c1.117,0.588,2.262,1.135,3.416,1.66
						C79.414,72.025,77.503,72.814,75.648,73.453z M69.939,61.709c-0.203-0.156-0.396-0.316-0.596-0.475
						c-0.424-0.336-0.838-0.675-1.236-1.016c-0.098-0.083-0.191-0.166-0.287-0.249c0.1-0.103,0.193-0.206,0.293-0.31
						c0.391-0.407,0.797-0.812,1.213-1.217c0.199-0.194,0.396-0.389,0.602-0.582c0.555-0.521,1.129-1.038,1.723-1.552
						c0.064-0.056,0.127-0.113,0.191-0.169c-0.002,0.037-0.002,0.074-0.002,0.111c-0.043,0.977-0.066,1.958-0.066,2.938
						c0,1.206,0.041,2.41,0.105,3.611c0.006,0.117,0.004,0.234,0.01,0.354c-0.014-0.01-0.025-0.02-0.039-0.029
						C71.191,62.66,70.556,62.186,69.939,61.709z M80.185,47.565c-1.094,0.638-2.178,1.297-3.234,1.994
						c-0.846,0.56-1.682,1.146-2.506,1.744c0.229-1.834,0.545-3.588,0.93-5.26C76.941,46.455,78.546,46.957,80.185,47.565z
						 M85.378,47.258c0.879-0.429,1.75-0.822,2.611-1.188c0.232-0.099,0.463-0.184,0.693-0.278c0.639-0.259,1.271-0.502,1.896-0.725
						c0.137-0.048,0.271-0.093,0.408-0.14c0.035,0.137,0.07,0.271,0.105,0.408c0.158,0.638,0.303,1.293,0.438,1.96
						c0.049,0.24,0.102,0.475,0.148,0.719c0.17,0.908,0.318,1.839,0.445,2.796c0.004,0.034,0.008,0.07,0.012,0.104
						c-0.098-0.059-0.199-0.11-0.299-0.168c-1.033-0.615-2.082-1.213-3.152-1.776c-1.025-0.538-2.07-1.044-3.125-1.531
						c-0.092-0.042-0.182-0.092-0.273-0.134C85.318,47.29,85.347,47.271,85.378,47.258z M92.669,59.189
						c0,1.641-0.061,3.297-0.184,4.931c-1.285,0.997-2.633,1.961-4.012,2.874c-1.502,0.992-3.057,1.93-4.625,2.791
						c-1.65-0.701-3.291-1.479-4.883-2.314c-1.623-0.852-3.223-1.781-4.76-2.762c-0.045-0.545-0.08-1.093-0.113-1.642
						c-0.02-0.324-0.047-0.646-0.062-0.973c-0.043-0.965-0.066-1.936-0.066-2.904c0-0.868,0.02-1.737,0.053-2.603
						c0.012-0.288,0.033-0.57,0.049-0.856c0.025-0.494,0.055-0.987,0.09-1.477c1.293-1.001,2.637-1.964,4.004-2.866
						c1.5-0.99,3.049-1.926,4.613-2.784c0.525,0.222,1.049,0.455,1.57,0.694c0.256,0.115,0.514,0.225,0.768,0.345
						c0.861,0.405,1.715,0.826,2.557,1.268c0.861,0.453,1.711,0.928,2.551,1.417c0.26,0.152,0.514,0.314,0.771,0.471
						c0.488,0.294,0.973,0.591,1.449,0.895C92.591,55.503,92.669,57.35,92.669,59.189z M94.732,55.216
						c1.471,1.037,2.828,2.106,4.082,3.195c-1.219,1.293-2.557,2.576-4.025,3.833c0.045-1.018,0.072-2.039,0.072-3.055
						C94.861,57.862,94.808,56.535,94.732,55.216z M104.572,45.142c1.529,2.313-0.107,6.721-4.279,11.637
						c-1.727-1.501-3.662-2.961-5.77-4.356V52.42l-0.002-0.001c-0.061-0.605-0.135-1.199-0.211-1.789
						c-0.016-0.105-0.023-0.213-0.039-0.317c-0.107-0.785-0.23-1.552-0.365-2.307c-0.041-0.228-0.088-0.448-0.131-0.673
						c-0.102-0.524-0.205-1.042-0.32-1.551c-0.059-0.267-0.123-0.526-0.188-0.788c-0.061-0.246-0.113-0.501-0.176-0.743
						c2.361-0.665,4.541-1.015,6.354-1.015C101.21,43.236,103.531,43.566,104.572,45.142z M83.318,33.712
						c2.605,0,5.273,3.454,7.072,9.087c-0.25,0.086-0.506,0.188-0.76,0.278c-0.242,0.088-0.484,0.175-0.73,0.268
						c-0.51,0.194-1.023,0.401-1.541,0.618c-0.199,0.083-0.395,0.159-0.594,0.246c-0.721,0.311-1.445,0.641-2.176,0.993
						c-0.064,0.031-0.131,0.066-0.195,0.099c-0.574,0.279-1.15,0.567-1.729,0.872l-0.002-0.001l-0.002,0.001
						c-2.303-0.931-4.566-1.691-6.752-2.265C77.708,37.588,80.505,33.712,83.318,33.712z M60.762,47.341
						c0.844-1.606,3.191-2.49,6.611-2.49c1.752,0,3.719,0.227,5.859,0.675c-0.549,2.379-0.947,4.93-1.189,7.601l-0.002,0.001v0.002
						c-0.461,0.368-0.906,0.741-1.346,1.114c-0.078,0.064-0.158,0.127-0.234,0.191c-0.57,0.489-1.123,0.982-1.66,1.478
						c-0.172,0.157-0.332,0.316-0.498,0.474c-0.373,0.351-0.736,0.702-1.092,1.057c-0.176,0.177-0.348,0.354-0.518,0.531
						c-0.168,0.173-0.346,0.344-0.508,0.518C61.543,54.018,59.473,49.796,60.762,47.341z M67.189,75.146
						c-1.766,0-4.085-0.33-5.126-1.906c-1.529-2.312,0.109-6.721,4.279-11.638c0.156,0.137,0.326,0.271,0.486,0.408
						c0.166,0.139,0.332,0.279,0.502,0.42c0.373,0.309,0.76,0.615,1.152,0.918c0.146,0.117,0.291,0.232,0.441,0.347
						c0.545,0.416,1.105,0.828,1.682,1.235c0.062,0.045,0.129,0.088,0.193,0.133c0.432,0.301,0.865,0.602,1.312,0.896v0.004h0.002
						c0.297,2.918,0.777,5.658,1.432,8.168C71.181,74.796,69.001,75.146,67.189,75.146L67.189,75.146z M83.318,84.669
						c-2.605,0-5.275-3.455-7.074-9.088c2.496-0.854,5.088-1.984,7.725-3.373h0.002h0.002c2.303,0.93,4.566,1.691,6.752,2.266
						C88.925,80.792,86.13,84.669,83.318,84.669z M105.873,71.041c-0.844,1.605-3.193,2.49-6.611,2.49
						c-1.752,0-3.719-0.227-5.859-0.674c0.549-2.379,0.947-4.928,1.189-7.6l0.002-0.002v-0.004c2.176-1.74,4.139-3.539,5.855-5.362
						C105.091,64.364,107.162,68.585,105.873,71.041z"/>
				</g>
			</g>
			<g>
				<g>
					<circle fill="#00B39A" cx="88.505" cy="36.607" r="3.18"/>
				</g>
			</g>
			<g>
				<g>
					<circle fill="#00B39A" cx="66.318" cy="75.78" r="3.179"/>
				</g>
			</g>
			<g>
				<g>
					<circle fill="#00B39A" cx="93.984" cy="64.548" r="3.18"/>
				</g>
			</g>
		</g>
	</g>
</g>
</svg>
