<?xml version="1.0" encoding="utf-8"?>
<!-- Generator: Adobe Illustrator 15.0.2, SVG Export Plug-In . SVG Version: 6.00 Build 0)  -->
<!DOCTYPE svg PUBLIC "-//W3C//DTD SVG 1.1//EN" "http://www.w3.org/Graphics/SVG/1.1/DTD/svg11.dtd">
<svg version="1.1" id="Layer_1" xmlns="http://www.w3.org/2000/svg" xmlns:xlink="http://www.w3.org/1999/xlink" x="0px" y="0px"
	 width="126.667px" height="126.666px" viewBox="0 0 126.667 126.666" enable-background="new 0 0 126.667 126.666"
	 xml:space="preserve">
<g>
	<g>
		<g>
			<g>
				<g>
					<circle fill="#2C3E50" cx="63.333" cy="63.334" r="63.333"/>
				</g>
			</g>
		</g>
	</g>
	<g>
		<g>
			<path fill="#3B96D2" d="M67.918,57.658h35.516c2.531,0,4.584-6.766,4.584-6.766s-2.053-6.766-4.584-6.766H67.918
				C65.387,44.127,65.387,57.658,67.918,57.658z"/>
			<path fill="#E5E5E5" d="M94.268,49.461H75.042c-1.125,0-2.035,0.625-2.035,1.398c0,0.771,0.91,1.398,2.035,1.398h19.227
				c1.125,0,2.035-0.627,2.035-1.398C96.303,50.086,95.393,49.461,94.268,49.461z"/>
			<path fill="#E5E5E5" d="M102.125,49.461h-2.039c-1.125,0-2.035,0.625-2.035,1.398c0,0.771,0.91,1.398,2.035,1.398h2.039
				c1.125,0,2.035-0.627,2.035-1.398C104.161,50.086,103.25,49.461,102.125,49.461z"/>
		</g>
		<g>
			<path fill="#3B96D2" d="M64.209,29.867H28.693c-2.531,0-4.584,6.766-4.584,6.766s2.053,6.766,4.584,6.766h35.516
				C66.741,43.398,66.741,29.867,64.209,29.867z"/>
			<path fill="#E5E5E5" d="M37.859,38.064h19.227c1.125,0,2.035-0.625,2.035-1.398s-0.91-1.4-2.035-1.4H37.859
				c-1.125,0-2.035,0.627-2.035,1.4S36.734,38.064,37.859,38.064z"/>
			<path fill="#E5E5E5" d="M30.002,38.064h2.039c1.125,0,2.037-0.625,2.037-1.398s-0.912-1.4-2.037-1.4h-2.039
				c-1.125,0-2.035,0.627-2.035,1.4S28.877,38.064,30.002,38.064z"/>
		</g>
		<g>
			<path fill="#3B96D2" d="M64.209,60.518H28.693c-2.531,0-4.584,6.766-4.584,6.766s2.053,6.766,4.584,6.766h35.516
				C66.741,74.049,66.741,60.518,64.209,60.518z"/>
			<path fill="#E5E5E5" d="M37.859,68.717h19.227c1.125,0,2.035-0.627,2.035-1.4c0-0.771-0.91-1.398-2.035-1.398H37.859
				c-1.125,0-2.035,0.627-2.035,1.398C35.824,68.09,36.734,68.717,37.859,68.717z"/>
			<path fill="#E5E5E5" d="M30.002,68.717h2.039c1.125,0,2.037-0.627,2.037-1.4c0-0.771-0.912-1.398-2.037-1.398h-2.039
				c-1.125,0-2.035,0.627-2.035,1.398C27.967,68.09,28.877,68.717,30.002,68.717z"/>
		</g>
		<g>
			<g>
				<ellipse fill="#9D5D26" cx="66.036" cy="111.789" rx="15.425" ry="5.426"/>
			</g>
			<g>
				<ellipse fill="#AE722D" cx="66.036" cy="110.77" rx="14.261" ry="4.074"/>
			</g>
			<g>
				<path fill="#AE722D" d="M70.754,108.951c0,4.701-9.168,4.701-9.168,0V22.52c0-4.701,2.053-8.514,4.584-8.514l0,0
					c2.531,0,4.584,3.812,4.584,8.514V108.951z"/>
			</g>
			<g>
				<path fill="#BB813C" d="M70.754,108.951c0,3.482-5.029,4.385-7.637,2.709c-0.914-0.586-1.447-91.111,3.053-97.654l0,0
					c2.531,0,4.584,3.812,4.584,8.514V108.951z"/>
			</g>
		</g>
	</g>
</g>
</svg>
