<?xml version="1.0" encoding="utf-8"?>
<!-- Generator: Adobe Illustrator 15.0.0, SVG Export Plug-In . SVG Version: 6.00 Build 0)  -->
<!DOCTYPE svg PUBLIC "-//W3C//DTD SVG 1.1//EN" "http://www.w3.org/Graphics/SVG/1.1/DTD/svg11.dtd">
<svg version="1.1" id="Layer_1" xmlns="http://www.w3.org/2000/svg" xmlns:xlink="http://www.w3.org/1999/xlink" x="0px" y="0px"
	 width="133.043px" height="133.043px" viewBox="0 0 133.043 133.043" enable-background="new 0 0 133.043 133.043"
	 xml:space="preserve">
<g>
	<g>
		<circle fill="#2A81BA" cx="66.521" cy="66.52" r="66.521"/>
	</g>
	<g>
		<path fill="#F6FAFE" d="M32.066,85.679c0-0.474,0.015-1.094,0.044-1.866s0.056-1.588,0.084-2.435
			c0.029-0.852,0.058-1.683,0.089-2.503c0.027-0.814,0.048-1.52,0.048-2.104c0-1.492-0.121-2.729-0.355-3.686
			c-0.236-0.973-0.57-1.74-1.009-2.308c-0.437-0.568-0.989-0.968-1.644-1.21c-0.663-0.231-1.398-0.352-2.216-0.352h-3.775v-7.987
			h3.686c1.845,0,3.218-0.558,4.125-1.683c0.905-1.125,1.359-2.965,1.359-5.51c0-0.353-0.006-0.873-0.019-1.557
			c-0.016-0.684-0.039-1.404-0.068-2.155c-0.029-0.742-0.053-1.436-0.068-2.083c-0.014-0.642-0.016-1.078-0.016-1.314
			c0-5.353,1.43-9.391,4.298-12.114c2.863-2.718,7.153-4.08,12.858-4.08h7.279v8.118H47.95c-1.929,0-3.357,0.6-4.276,1.798
			c-0.923,1.199-1.383,3.008-1.383,5.406c0,0.404,0.005,0.946,0.024,1.598c0.013,0.662,0.034,1.341,0.06,2.04
			c0.029,0.704,0.052,1.356,0.068,1.977c0.016,0.611,0.023,1.068,0.023,1.357c0,2.666-0.562,5.037-1.69,7.108
			c-1.128,2.077-2.688,3.754-4.675,5.048c0.907,0.589,1.735,1.314,2.482,2.177c0.741,0.862,1.393,1.84,1.95,2.934
			c0.555,1.094,0.991,2.303,1.296,3.597c0.308,1.304,0.46,2.687,0.46,4.148c0,0.326-0.008,0.889-0.023,1.688
			c-0.016,0.805-0.035,1.62-0.063,2.461c-0.034,0.831-0.052,1.599-0.066,2.282c-0.015,0.684-0.026,1.093-0.026,1.209
			c0,3.071,0.647,5.285,1.93,6.646c1.291,1.356,3.41,2.04,6.365,2.04h6.278v7.939h-5.047c-0.613,0-1.528-0.031-2.745-0.11
			c-1.212-0.068-2.514-0.216-3.902-0.437c-1.393-0.221-2.758-0.525-4.103-0.926c-1.344-0.389-2.461-0.926-3.337-1.598
			c-1.845-1.398-3.221-3.271-4.122-5.595C32.518,91.315,32.066,88.655,32.066,85.679z"/>
		<path fill="#F6FAFE" d="M100.979,85.679c0,2.977-0.452,5.637-1.356,7.961c-0.915,2.323-2.287,4.196-4.133,5.595
			c-0.872,0.672-1.987,1.209-3.334,1.598c-1.346,0.4-2.713,0.705-4.101,0.926c-1.394,0.221-2.692,0.368-3.906,0.437
			c-1.215,0.079-2.125,0.11-2.745,0.11h-5.048v-7.939h6.283c2.95,0,5.069-0.684,6.362-2.04c1.283-1.361,1.925-3.575,1.925-6.646
			c0-0.116-0.011-0.525-0.021-1.209c-0.01-0.684-0.031-1.451-0.063-2.282c-0.031-0.841-0.052-1.656-0.067-2.461
			c-0.017-0.799-0.021-1.361-0.021-1.688c0-1.462,0.152-2.845,0.468-4.148c0.306-1.294,0.727-2.503,1.262-3.597
			c0.547-1.094,1.199-2.071,1.956-2.934c0.763-0.862,1.599-1.588,2.503-2.177c-1.987-1.294-3.544-2.971-4.68-5.048
			c-1.125-2.071-1.682-4.442-1.682-7.108c0-0.289,0.004-0.746,0.021-1.357c0.011-0.62,0.037-1.272,0.063-1.977
			c0.031-0.699,0.052-1.378,0.073-2.04c0.01-0.651,0.016-1.193,0.016-1.598c0-2.398-0.458-4.207-1.383-5.406
			c-0.92-1.198-2.345-1.798-4.28-1.798h-8.817v-8.118h7.282c5.71,0,9.995,1.362,12.861,4.08c2.866,2.724,4.301,6.762,4.301,12.114
			c0,0.236-0.011,0.673-0.021,1.314c-0.015,0.647-0.041,1.341-0.068,2.083c-0.031,0.751-0.047,1.472-0.062,2.155
			c-0.021,0.684-0.026,1.204-0.026,1.557c0,2.545,0.457,4.385,1.361,5.51c0.905,1.125,2.287,1.683,4.128,1.683h3.681v7.987h-3.774
			c-0.843,0-1.589,0.12-2.23,0.352c-0.651,0.242-1.188,0.642-1.63,1.21c-0.441,0.567-0.772,1.335-1.01,2.308
			c-0.231,0.957-0.347,2.193-0.347,3.686c0,0.584,0.016,1.289,0.042,2.104c0.031,0.82,0.058,1.651,0.085,2.503
			c0.031,0.847,0.062,1.662,0.089,2.435S100.979,85.205,100.979,85.679z"/>
	</g>
</g>
</svg>
