<?xml version="1.0" encoding="utf-8"?>
<!-- Generator: Adobe Illustrator 15.0.2, SVG Export Plug-In . SVG Version: 6.00 Build 0)  -->
<!DOCTYPE svg PUBLIC "-//W3C//DTD SVG 1.1//EN" "http://www.w3.org/Graphics/SVG/1.1/DTD/svg11.dtd">
<svg version="1.1" id="Layer_1" xmlns="http://www.w3.org/2000/svg" xmlns:xlink="http://www.w3.org/1999/xlink" x="0px" y="0px"
	 width="330px" height="85px" viewBox="0 0 330 85" enable-background="new 0 0 330 85" xml:space="preserve">
<g>
	<g>
		<circle fill="#2980BA" cx="45.827" cy="42.499" r="33.558"/>
	</g>
	<g>
		<path fill="#F6FAFE" d="M28.445,52.164c0-0.238,0.008-0.552,0.022-0.941c0.015-0.39,0.028-0.801,0.043-1.229
			c0.015-0.429,0.029-0.849,0.045-1.262c0.013-0.411,0.024-0.768,0.024-1.062c0-0.753-0.061-1.377-0.179-1.859
			c-0.12-0.49-0.288-0.878-0.51-1.164c-0.22-0.287-0.498-0.488-0.829-0.61c-0.334-0.117-0.706-0.177-1.119-0.177h-1.904v-4.03h1.859
			c0.931,0,1.624-0.281,2.081-0.849c0.456-0.568,0.686-1.496,0.686-2.78c0-0.177-0.003-0.44-0.01-0.785
			c-0.008-0.345-0.02-0.708-0.034-1.087c-0.014-0.374-0.027-0.724-0.034-1.05c-0.007-0.324-0.008-0.544-0.008-0.663
			c0-2.701,0.722-4.738,2.168-6.111c1.444-1.371,3.609-2.059,6.486-2.059h3.672v4.095h-4.448c-0.973,0-1.693,0.303-2.158,0.908
			c-0.465,0.604-0.697,1.517-0.697,2.727c0,0.204,0.002,0.478,0.012,0.807c0.006,0.334,0.018,0.676,0.031,1.028
			c0.015,0.356,0.026,0.685,0.035,0.998c0.007,0.308,0.012,0.539,0.012,0.685c0,1.345-0.284,2.542-0.853,3.586
			c-0.569,1.048-1.355,1.894-2.358,2.547c0.458,0.297,0.875,0.663,1.252,1.098c0.375,0.435,0.703,0.929,0.984,1.48
			c0.279,0.552,0.5,1.162,0.653,1.815c0.156,0.657,0.232,1.355,0.232,2.093c0,0.164-0.004,0.448-0.012,0.851
			c-0.008,0.406-0.018,0.817-0.032,1.242c-0.018,0.419-0.026,0.806-0.033,1.15c-0.008,0.346-0.014,0.552-0.014,0.61
			c0,1.55,0.327,2.666,0.974,3.353c0.651,0.685,1.72,1.029,3.211,1.029h3.167v4.006h-2.546c-0.309,0-0.771-0.017-1.385-0.056
			c-0.611-0.034-1.267-0.109-1.968-0.22c-0.703-0.112-1.392-0.266-2.07-0.468c-0.678-0.196-1.242-0.467-1.684-0.807
			c-0.931-0.705-1.625-1.649-2.08-2.822C28.673,55.008,28.445,53.666,28.445,52.164z"/>
		<path fill="#F6FAFE" d="M63.211,52.164c0,1.502-0.23,2.844-0.687,4.016c-0.459,1.173-1.153,2.117-2.083,2.822
			c-0.441,0.34-1.002,0.61-1.681,0.807c-0.681,0.202-1.37,0.355-2.071,0.468c-0.703,0.11-1.358,0.186-1.971,0.22
			c-0.614,0.039-1.072,0.056-1.384,0.056h-2.547v-4.006h3.168c1.49,0,2.56-0.345,3.21-1.029c0.647-0.687,0.973-1.803,0.973-3.353
			c0-0.059-0.005-0.265-0.012-0.61c-0.007-0.345-0.018-0.731-0.032-1.15c-0.016-0.425-0.027-0.836-0.035-1.242
			c-0.007-0.402-0.011-0.687-0.011-0.851c0-0.737,0.077-1.436,0.235-2.093c0.154-0.653,0.366-1.263,0.639-1.815
			c0.273-0.551,0.602-1.045,0.985-1.48c0.384-0.435,0.805-0.801,1.261-1.098c-1.003-0.653-1.788-1.499-2.358-2.547
			c-0.567-1.044-0.85-2.241-0.85-3.586c0-0.146,0.003-0.376,0.011-0.685c0.006-0.312,0.018-0.642,0.033-0.998
			c0.015-0.352,0.027-0.694,0.035-1.028c0.007-0.329,0.009-0.603,0.009-0.807c0-1.209-0.232-2.123-0.696-2.727
			c-0.466-0.605-1.186-0.908-2.16-0.908h-4.449v-4.095h3.674c2.879,0,5.042,0.688,6.489,2.059c1.445,1.374,2.168,3.411,2.168,6.111
			c0,0.119-0.004,0.339-0.012,0.663c-0.007,0.326-0.019,0.676-0.033,1.05c-0.016,0.379-0.025,0.743-0.032,1.087
			c-0.011,0.345-0.013,0.608-0.013,0.785c0,1.284,0.23,2.212,0.687,2.78c0.456,0.568,1.152,0.849,2.082,0.849h1.856v4.03H65.71
			c-0.427,0-0.804,0.061-1.127,0.177c-0.326,0.122-0.6,0.324-0.82,0.61c-0.223,0.286-0.391,0.674-0.509,1.164
			c-0.118,0.482-0.177,1.106-0.177,1.859c0,0.294,0.008,0.65,0.021,1.062c0.015,0.413,0.03,0.833,0.044,1.262
			c0.014,0.428,0.029,0.839,0.043,1.229S63.211,51.926,63.211,52.164z"/>
	</g>
	<g>
		<path fill="#595A5C" d="M98.587,24.621l7.337-1.241c0,0.498-0.077,0.912-0.231,1.241c-0.153,0.326-0.289,0.703-0.403,1.125
			l-0.608,5.345h8.348v5.371h-8.579c-0.058,1.426-0.151,2.899-0.273,4.419c-0.127,1.522-0.19,3.024-0.19,4.504
			c0,1.506,0.034,2.795,0.103,3.872c0.066,1.077,0.209,1.958,0.433,2.627c0.22,0.679,0.538,1.172,0.955,1.49
			c0.414,0.318,0.955,0.478,1.631,0.478c0.656,0,1.52-0.287,2.6-0.854c1.076-0.567,2.3-1.368,3.666-2.408l2.082,5.453
			c-1.618,1.156-3.202,2.048-4.753,2.674c-1.549,0.626-3.085,0.939-4.607,0.939c-1.541,0-2.862-0.218-3.971-0.647
			c-1.106-0.436-2.021-1.108-2.743-2.021c-0.724-0.918-1.252-2.09-1.589-3.512c-0.336-1.422-0.504-3.13-0.504-5.114
			c0-1.326,0.037-2.97,0.114-4.923c0.077-1.952,0.22-4.281,0.433-6.976h-5.979v-5.371h6.326L98.587,24.621z"/>
		<path fill="#595A5C" d="M122.547,31.091h6.817v3.005c0.443-0.504,0.944-0.976,1.5-1.417c0.56-0.443,1.157-0.828,1.794-1.157
			c0.633-0.323,1.302-0.583,2.005-0.764c0.703-0.186,1.418-0.276,2.153-0.276c1.557,0,3.045,0.244,4.461,0.737
			c1.414,0.491,2.671,1.258,3.77,2.297l-3.09,6.44c-0.966-1.329-1.888-2.302-2.774-2.918c-0.886-0.615-1.772-0.922-2.655-0.922
			c-1.021,0-1.971,0.217-2.846,0.647c-0.878,0.435-1.647,1.021-2.313,1.761c-0.663,0.743-1.181,1.61-1.557,2.602
			c-0.374,0.989-0.562,2.035-0.562,3.132V58.7h-6.703V31.091z"/>
		<path fill="#595A5C" d="M164.729,61.708c-0.501,1.326-1.08,2.461-1.732,3.405c-0.655,0.944-1.369,1.714-2.138,2.313
			c-0.77,0.594-1.594,1.034-2.47,1.31c-0.875,0.281-1.785,0.42-2.729,0.42c-2.715,0-5.151-1.034-7.307-3.119l3.292-5.688
			c0.233,0.112,0.396,0.239,0.491,0.377c0.099,0.133,0.175,0.286,0.23,0.456c0.059,0.175,0.117,0.36,0.175,0.552
			c0.056,0.19,0.154,0.404,0.29,0.637c0.271,0.483,0.602,0.839,0.995,1.065c0.395,0.234,0.891,0.345,1.488,0.345
			c0.424,0,0.827-0.084,1.214-0.254c0.385-0.175,0.764-0.473,1.141-0.896c0.374-0.425,0.746-0.981,1.112-1.677
			c0.365-0.694,0.731-1.56,1.098-2.599l-10.371-27.265h8.117c0,0.209-0.019,0.39-0.058,0.533c-0.038,0.144-0.085,0.287-0.144,0.419
			c-0.059,0.138-0.106,0.276-0.143,0.419c-0.04,0.143-0.058,0.313-0.058,0.504l6.15,17.156l2.658-7.279
			c0.366-0.981,0.716-1.989,1.052-3.029c0.339-1.042,0.653-2.071,0.938-3.093c0.292-1.018,0.552-2.005,0.78-2.96
			c0.233-0.952,0.435-1.843,0.61-2.67h6.323c-0.482,1.984-1.076,4.039-1.787,6.166c-0.717,2.127-1.507,4.29-2.372,6.483
			L164.729,61.708z"/>
		<path fill="#595A5C" d="M205.775,36.165l-3.02,3.49c-0.195-0.119-0.285-0.246-0.264-0.387c0.016-0.136-0.006-0.324-0.059-0.557
			c-0.064-0.239-0.213-0.536-0.451-0.891c-0.238-0.356-0.711-0.828-1.428-1.419c-1.352-1.101-3.199-1.652-5.543-1.652
			c-1.152,0-2.256,0.233-3.305,0.705c-1.051,0.472-1.975,1.151-2.77,2.038c-0.797,0.883-1.434,1.941-1.91,3.183
			c-0.477,1.239-0.711,2.623-0.711,4.159c0,1.533,0.234,2.949,0.711,4.249c0.477,1.294,1.135,2.419,1.969,3.358
			c0.832,0.943,1.824,1.682,2.977,2.212c1.15,0.53,2.424,0.795,3.812,0.795c2.744,0,5.104-1.081,7.094-3.251l2.482,2.896
			c-2.684,2.844-5.973,4.26-9.877,4.26c-1.932,0-3.719-0.355-5.354-1.066c-1.639-0.706-3.055-1.692-4.26-2.955
			s-2.139-2.753-2.812-4.467c-0.668-1.713-1.002-3.597-1.002-5.649c0-2.011,0.334-3.883,1.002-5.618
			c0.674-1.734,1.607-3.225,2.812-4.467c1.205-1.241,2.641-2.217,4.318-2.928c1.676-0.708,3.496-1.066,5.469-1.066
			c2.127,0,4.074,0.446,5.826,1.331C203.24,33.358,204.672,34.586,205.775,36.165z"/>
		<path fill="#595A5C" d="M213.701,34.865c2.408-2.525,5.617-3.787,9.639-3.787c3.316,0,5.926,0.84,7.842,2.514
			c1.908,1.676,2.869,4.467,2.869,8.371V58.7h-4.027v-2.955c-2.875,2.403-6.111,3.607-9.697,3.607c-1.422,0-2.695-0.217-3.814-0.652
			c-1.125-0.431-2.084-1.003-2.869-1.714c-0.791-0.711-1.391-1.518-1.803-2.424c-0.414-0.907-0.621-1.814-0.621-2.722
			c0-2.722,1.172-4.87,3.516-6.45c2.346-1.577,5.73-2.444,10.145-2.601h5.088v-1.013c0-2.7-0.564-4.586-1.688-5.66
			c-1.119-1.072-2.865-1.607-5.23-1.607c-2.918,0-5.348,1.023-7.279,3.074L213.701,34.865z M230.146,46.042h-1.008
			c-0.553,0-1.072-0.01-1.566-0.026c-0.492-0.021-0.975-0.031-1.453-0.031c-2.164,0-3.941,0.147-5.32,0.445
			c-1.379,0.297-2.467,0.7-3.252,1.21c-0.791,0.514-1.332,1.093-1.629,1.745s-0.439,1.353-0.439,2.101
			c0,1.263,0.551,2.351,1.654,3.252c1.104,0.912,2.463,1.363,4.08,1.363c1.184,0,2.248-0.186,3.193-0.562
			c0.949-0.376,1.777-0.827,2.488-1.357c0.705-0.536,1.277-1.088,1.713-1.661c0.436-0.567,0.748-1.071,0.945-1.506
			c0.396-0.791,0.594-1.853,0.594-3.194V46.042z"/>
		<path fill="#595A5C" d="M246.549,24.451l4.615-0.764c0,0.351-0.047,0.669-0.148,0.944c-0.102,0.276-0.164,0.494-0.207,0.65
			l-0.711,6.387h8.875v3.43h-8.875c-0.354,3.533-0.529,6.846-0.529,9.942c0,1.898,0.037,3.506,0.115,4.816
			c0.086,1.311,0.287,2.34,0.627,3.093c0.334,0.753,0.822,1.337,1.459,1.757c0.631,0.418,1.484,0.625,2.551,0.625
			c1.824,0,3.846-0.827,6.064-2.482l1.309,3.369c-2.721,2.01-5.521,3.018-8.396,3.018c-2.844,0-4.912-0.858-6.211-2.583
			c-1.307-1.719-1.895-4.515-1.779-8.388c0-1.422,0.043-3.24,0.119-5.453c0.078-2.217,0.238-4.785,0.475-7.713h-6.328v-3.43h6.506
			L246.549,24.451z"/>
		<path fill="#595A5C" d="M289.572,36.165l-3.014,3.49c-0.201-0.119-0.291-0.246-0.271-0.387c0.018-0.136,0-0.324-0.057-0.557
			c-0.064-0.239-0.213-0.536-0.451-0.891c-0.232-0.356-0.711-0.828-1.428-1.419c-1.348-1.101-3.199-1.652-5.543-1.652
			c-1.152,0-2.25,0.233-3.307,0.705c-1.049,0.472-1.973,1.151-2.768,2.038c-0.797,0.883-1.432,1.941-1.91,3.183
			c-0.471,1.239-0.711,2.623-0.711,4.159c0,1.533,0.24,2.949,0.711,4.249c0.479,1.294,1.137,2.419,1.969,3.358
			c0.832,0.943,1.826,1.682,2.977,2.212c1.154,0.53,2.43,0.795,3.812,0.795c2.744,0,5.104-1.081,7.094-3.251l2.482,2.896
			c-2.68,2.844-5.973,4.26-9.877,4.26c-1.932,0-3.719-0.355-5.354-1.066c-1.639-0.706-3.057-1.692-4.26-2.955
			s-2.139-2.753-2.805-4.467c-0.676-1.713-1.01-3.597-1.01-5.649c0-2.011,0.334-3.883,1.01-5.618
			c0.666-1.734,1.602-3.225,2.805-4.467c1.203-1.241,2.643-2.217,4.318-2.928c1.676-0.708,3.496-1.066,5.469-1.066
			c2.133,0,4.074,0.446,5.83,1.331C287.037,33.358,288.469,34.586,289.572,36.165z"/>
		<path fill="#595A5C" d="M296.256,58.7V19.366h4.854c0,0.04,0.006,0.059,0.027,0.059s0.031,0.019,0.031,0.061
			c0,0.116-0.09,0.287-0.27,0.501c-0.176,0.217-0.303,0.485-0.383,0.798v15.677c1.066-1.658,2.404-2.976,4.006-3.963
			c1.602-0.986,3.236-1.48,4.896-1.48c1.23,0,2.344,0.207,3.352,0.621c1.014,0.414,1.889,1.077,2.645,1.981
			c0.752,0.91,1.324,2.072,1.723,3.494c0.393,1.417,0.594,3.151,0.594,5.202V58.7h-4.26V42.435c0-2.838-0.482-4.833-1.447-5.973
			c-0.965-1.146-2.145-1.713-3.523-1.713c-0.906,0-1.814,0.193-2.721,0.588c-0.908,0.395-1.783,0.944-2.631,1.655
			c-0.85,0.711-1.502,1.579-1.953,2.605c-0.451,1.024-0.68,2.207-0.68,3.549V58.7H296.256z"/>
	</g>
</g>
</svg>
