<?xml version="1.0" encoding="utf-8"?>
<!-- Generator: Adobe Illustrator 15.0.0, SVG Export Plug-In . SVG Version: 6.00 Build 0)  -->
<!DOCTYPE svg PUBLIC "-//W3C//DTD SVG 1.1//EN" "http://www.w3.org/Graphics/SVG/1.1/DTD/svg11.dtd">
<svg version="1.1" id="Layer_1" xmlns="http://www.w3.org/2000/svg" xmlns:xlink="http://www.w3.org/1999/xlink" x="0px" y="0px"
	 width="226.771px" height="226.771px" viewBox="0 0 226.771 226.771" enable-background="new 0 0 226.771 226.771"
	 xml:space="preserve">
<path fill="#FFFFFF" d="M211.933,113.386c0,54.428-44.121,98.545-98.547,98.545c-54.426,0-98.547-44.117-98.547-98.545
	c0-54.424,44.121-98.545,98.547-98.545C167.812,14.841,211.933,58.962,211.933,113.386z M54.06,107.088h-3.48v2.958h3.291
	c-0.118,1.483-0.197,2.759-0.24,3.835c-0.041,1.072-0.064,1.979-0.064,2.707c0,1.095,0.094,2.03,0.279,2.814
	c0.185,0.784,0.475,1.428,0.873,1.931c0.397,0.499,0.9,0.873,1.511,1.109c0.609,0.24,1.336,0.362,2.185,0.362
	c0.836,0,1.681-0.174,2.533-0.518c0.853-0.344,1.724-0.836,2.615-1.468l-1.144-3.003c-0.753,0.569-1.425,1.009-2.019,1.323
	c-0.595,0.314-1.069,0.47-1.431,0.47c-0.37,0-0.67-0.085-0.898-0.266c-0.229-0.171-0.399-0.444-0.523-0.814
	c-0.123-0.369-0.201-0.854-0.237-1.445c-0.039-0.596-0.055-1.302-0.055-2.131c0-0.816,0.034-1.642,0.104-2.478
	c0.065-0.839,0.118-1.646,0.148-2.43h4.721v-2.958h-4.592l0.333-2.938c0.063-0.233,0.14-0.44,0.225-0.621
	c0.082-0.182,0.125-0.409,0.125-0.681l-4.036,0.681L54.06,107.088z M67.463,122.279h3.686v-7.943c0-0.606,0.103-1.18,0.309-1.727
	c0.208-0.548,0.493-1.021,0.859-1.428c0.363-0.411,0.789-0.732,1.271-0.973c0.481-0.237,1.005-0.355,1.564-0.355
	c0.486,0,0.974,0.17,1.462,0.511c0.487,0.336,0.996,0.873,1.526,1.602l1.697-3.543c-0.602-0.569-1.293-0.993-2.074-1.262
	c-0.777-0.268-1.595-0.406-2.453-0.406c-0.403,0-0.798,0.052-1.184,0.151c-0.386,0.1-0.754,0.242-1.104,0.42
	c-0.348,0.183-0.679,0.394-0.985,0.638c-0.309,0.24-0.583,0.499-0.825,0.776v-1.652h-3.75V122.279z M94.434,114.048
	c0.478-1.206,0.91-2.396,1.303-3.565c0.391-1.172,0.72-2.3,0.984-3.395h-3.478c-0.095,0.454-0.207,0.946-0.335,1.472
	c-0.128,0.525-0.27,1.068-0.427,1.631c-0.16,0.562-0.331,1.128-0.519,1.697c-0.185,0.573-0.38,1.128-0.578,1.668l-1.462,4.005
	l-3.385-9.438c0-0.107,0.012-0.2,0.032-0.281c0.021-0.077,0.048-0.151,0.078-0.229c0.032-0.073,0.06-0.151,0.081-0.229
	c0.023-0.082,0.031-0.176,0.031-0.296h-4.464L88,122.087c-0.204,0.573-0.405,1.047-0.605,1.432c-0.2,0.381-0.405,0.688-0.613,0.921
	c-0.205,0.236-0.415,0.392-0.625,0.495c-0.212,0.093-0.435,0.141-0.667,0.141c-0.33,0-0.6-0.062-0.82-0.188
	c-0.215-0.133-0.397-0.325-0.546-0.592c-0.075-0.126-0.127-0.244-0.159-0.352c-0.032-0.104-0.062-0.203-0.097-0.299
	c-0.03-0.097-0.073-0.178-0.126-0.256c-0.052-0.07-0.142-0.144-0.269-0.207l-1.812,3.129c1.186,1.15,2.527,1.724,4.02,1.724
	c0.521,0,1.019-0.085,1.5-0.233c0.482-0.155,0.935-0.392,1.36-0.721s0.815-0.755,1.175-1.276c0.36-0.514,0.678-1.143,0.955-1.871
	L94.434,114.048z M110.889,107.85c-0.967-0.488-2.034-0.736-3.207-0.736c-1.083,0-2.088,0.196-3.009,0.588
	c-0.921,0.393-1.714,0.925-2.375,1.609c-0.663,0.684-1.179,1.505-1.546,2.455c-0.368,0.962-0.553,1.989-0.553,3.096
	c0,1.128,0.185,2.163,0.553,3.103c0.368,0.946,0.884,1.764,1.546,2.459c0.66,0.695,1.442,1.239,2.343,1.628
	c0.9,0.392,1.882,0.588,2.945,0.588c2.146,0,3.958-0.78,5.434-2.345l-1.367-1.594c-1.094,1.19-2.395,1.789-3.899,1.789
	c-0.766,0-1.465-0.144-2.099-0.436c-0.632-0.293-1.178-0.699-1.638-1.221c-0.459-0.518-0.821-1.136-1.083-1.85
	c-0.262-0.71-0.394-1.493-0.394-2.337c0-0.84,0.132-1.602,0.394-2.285c0.262-0.685,0.611-1.265,1.05-1.753
	c0.437-0.488,0.944-0.862,1.523-1.117c0.579-0.259,1.184-0.388,1.82-0.388c1.289,0,2.304,0.299,3.048,0.905
	c0.393,0.326,0.655,0.585,0.787,0.784c0.129,0.196,0.212,0.355,0.247,0.488c0.032,0.13,0.041,0.233,0.032,0.307
	c-0.011,0.074,0.036,0.148,0.146,0.211l1.662-1.915C112.641,109.011,111.854,108.334,110.889,107.85z M118.746,110.66
	c1.065-1.124,2.396-1.69,4.005-1.69c1.302,0,2.259,0.296,2.877,0.884c0.62,0.592,0.928,1.631,0.928,3.114v0.559h-2.799
	c-2.43,0.085-4.29,0.565-5.577,1.427c-1.294,0.869-1.938,2.057-1.938,3.551c0,0.503,0.114,0.998,0.342,1.494
	c0.226,0.503,0.557,0.942,0.993,1.335c0.431,0.392,0.958,0.706,1.579,0.946c0.616,0.237,1.314,0.359,2.097,0.359
	c1.975,0,3.752-0.666,5.334-1.986v1.627h2.213v-9.208c0-2.148-0.525-3.688-1.579-4.608c-1.05-0.921-2.487-1.381-4.312-1.381
	c-2.211,0-3.979,0.693-5.303,2.08L118.746,110.66z M126.655,116.292c0,0.732-0.109,1.32-0.328,1.757
	c-0.107,0.236-0.281,0.514-0.518,0.828c-0.24,0.314-0.553,0.622-0.945,0.914c-0.39,0.292-0.847,0.54-1.368,0.743
	c-0.52,0.211-1.104,0.311-1.755,0.311c-0.891,0-1.638-0.248-2.245-0.747c-0.608-0.499-0.914-1.091-0.914-1.79
	c0-0.41,0.083-0.795,0.244-1.153c0.163-0.362,0.462-0.681,0.896-0.962c0.431-0.285,1.028-0.503,1.788-0.666
	c0.76-0.166,1.734-0.244,2.929-0.244c0.263,0,0.529,0.008,0.797,0.016c0.272,0.011,0.557,0.019,0.863,0.019h0.553V116.292z
	 M135.417,107.407h-3.578v1.885h3.482c-0.131,1.612-0.218,3.024-0.259,4.245c-0.044,1.217-0.066,2.219-0.066,2.999
	c-0.065,2.131,0.259,3.669,0.976,4.615c0.716,0.947,1.853,1.417,3.417,1.417c1.583,0,3.123-0.552,4.619-1.657l-0.717-1.853
	c-1.221,0.909-2.333,1.364-3.338,1.364c-0.586,0-1.056-0.114-1.403-0.344c-0.351-0.229-0.616-0.551-0.801-0.961
	c-0.188-0.418-0.299-0.984-0.346-1.705c-0.044-0.722-0.063-1.605-0.063-2.648c0-1.704,0.096-3.527,0.289-5.473h4.883v-1.885h-4.883
	l0.392-3.516c0.022-0.085,0.061-0.203,0.115-0.355c0.055-0.152,0.081-0.325,0.081-0.522l-2.539,0.423L135.417,107.407z
	 M156.985,107.85c-0.962-0.488-2.03-0.736-3.203-0.736c-1.085,0-2.089,0.196-3.01,0.588c-0.921,0.393-1.712,0.925-2.376,1.609
	c-0.662,0.684-1.176,1.505-1.544,2.455c-0.37,0.962-0.553,1.989-0.553,3.096c0,1.128,0.183,2.163,0.553,3.103
	c0.368,0.946,0.882,1.764,1.544,2.459c0.664,0.695,1.444,1.239,2.343,1.628c0.903,0.392,1.883,0.588,2.946,0.588
	c2.147,0,3.959-0.78,5.435-2.345l-1.365-1.594c-1.095,1.19-2.396,1.789-3.903,1.789c-0.766,0-1.464-0.144-2.095-0.436
	c-0.636-0.293-1.182-0.699-1.64-1.221c-0.46-0.518-0.819-1.136-1.082-1.85c-0.263-0.71-0.392-1.493-0.392-2.337
	c0-0.84,0.129-1.602,0.392-2.285c0.263-0.685,0.614-1.265,1.048-1.753c0.438-0.488,0.945-0.862,1.525-1.117
	c0.577-0.259,1.186-0.388,1.82-0.388c1.287,0,2.304,0.299,3.049,0.905c0.39,0.326,0.653,0.585,0.784,0.784
	c0.131,0.196,0.214,0.355,0.246,0.488c0.033,0.13,0.044,0.233,0.033,0.307c-0.011,0.074,0.037,0.148,0.148,0.211l1.659-1.915
	C158.738,109.011,157.952,108.334,156.985,107.85z M165.367,122.279v-8.558c0-0.735,0.124-1.391,0.375-1.956
	c0.248-0.559,0.606-1.035,1.073-1.431c0.466-0.389,0.95-0.692,1.449-0.906c0.495-0.219,0.997-0.325,1.494-0.325
	c0.762,0,1.405,0.311,1.938,0.938c0.531,0.629,0.795,1.724,0.795,3.284v8.953h2.345v-9.016c0-1.128-0.11-2.082-0.325-2.862
	c-0.218-0.784-0.536-1.42-0.946-1.923c-0.416-0.496-0.899-0.858-1.454-1.086c-0.558-0.229-1.172-0.342-1.845-0.342
	c-0.916,0-1.812,0.27-2.696,0.81c-0.88,0.544-1.616,1.269-2.202,2.182v-8.623c0.044-0.171,0.114-0.316,0.213-0.438
	c0.096-0.116,0.144-0.209,0.144-0.277c0-0.021-0.003-0.032-0.013-0.032c-0.015,0-0.019-0.01-0.019-0.035h-2.668v21.644H165.367z
	 M38.016,133.352c1.122,0.825,2.38,1.302,3.77,1.424c1.392,0.13,2.958,0.196,4.692,0.196h1.951v-3.147h-2.749
	c-2.409,0-4.143-0.466-5.203-1.397c-1.062-0.932-1.591-2.622-1.591-5.056l0.163-4.516c0-4.556-1.536-7.337-4.609-8.339
	c3.18-1.335,4.771-4.017,4.771-8.025l-0.107-3.796c0-3.834,1.662-5.751,4.986-5.751h3.457v-3.146h-2.479
	c-6.58,0-9.87,3.146-9.87,9.438l0.109,3.903c0,2.059-0.424,3.542-1.273,4.448c-0.853,0.905-2.109,1.354-3.771,1.354h-1.03v3.15
	h1.083c1.554,0,2.759,0.414,3.608,1.239c0.848,0.824,1.273,2.43,1.273,4.804l-0.218,5.396
	C34.979,129.158,35.992,131.766,38.016,133.352z M190.461,96.028c-0.741-1.264-1.69-2.241-2.848-2.927
	c-1.157-0.687-2.422-1.077-3.794-1.168c-1.376-0.089-2.678-0.135-3.905-0.135h-1.681v3.146h4.021c1.819,0,3.181,0.441,4.073,1.332
	c0.894,0.884,1.341,2.354,1.341,4.419l-0.161,3.796c0,4.009,1.589,6.69,4.769,8.025c-3.071,1.039-4.607,3.816-4.607,8.339
	l0.163,4.516c0,2.651-0.732,4.501-2.201,5.54c-0.177,0.141-0.366,0.267-0.56,0.377c-0.196,0.107-0.448,0.204-0.753,0.292
	c-0.304,0.089-0.699,0.155-1.178,0.192c-0.484,0.037-1.119,0.052-1.906,0.052h-3.367v3.147h4.866c3.11,0,5.387-0.776,6.833-2.322
	c1.445-1.546,2.171-3.92,2.171-7.119l-0.163-5.396c0-2.374,0.414-3.979,1.248-4.804c0.832-0.825,2.024-1.239,3.578-1.239h1.139
	v-3.15h-1.083c-1.628,0-2.874-0.448-3.743-1.354c-0.865-0.906-1.304-2.39-1.304-4.448l0.165-3.903
	C191.574,99.031,191.2,97.296,190.461,96.028z"/>
</svg>
